<?xml version="1.0" encoding="us-ascii" standalone="no"?><svg xmlns="http://www.w3.org/2000/svg" xmlns:xlink="http://www.w3.org/1999/xlink" contentStyleType="text/css" height="549px" preserveAspectRatio="none" style="width:616px;height:549px;" version="1.1" viewBox="0 0 616 549" width="616px" zoomAndPan="magnify"><defs/><g><rect fill="none" height="58.1362" id="_title" rx="3" ry="3" style="stroke:#00FFFF;stroke-width:1.0;" width="222" x="190" y="20"/><text fill="#00FFFF" font-family="sans-serif" font-size="28" font-weight="bold" lengthAdjust="spacing" textLength="202" x="200" y="59.9321">NeuroPuentes</text><!--cluster ? Configuraci?n--><g id="cluster_&#128193; Configuraci&#243;n"><path d="M9,109.8402 L213,109.8402 A4.5,4.5 0 0 1 216,112.8402 L223,153.9763 L233,153.9763 A3,3 0 0 1 236,156.9763 L236,370.8402 A3,3 0 0 1 233,373.8402 L9,373.8402 A3,3 0 0 1 6,370.8402 L6,112.8402 A3,3 0 0 1 9,109.8402 " fill="#1B263B" style="stroke:#415A77;stroke-width:1.5;"/><line style="stroke:#415A77;stroke-width:1.5;" x1="6" x2="223" y1="153.9763" y2="153.9763"/><text fill="#00FFFF" font-family="sans-serif" font-size="28" font-weight="bold" lengthAdjust="spacing" textLength="204" x="10" y="141.7723">&#128193; Configuraci&#243;n</text></g><!--cluster ? Situaciones--><g id="cluster_&#128200; Situaciones"><path d="M263,150.8402 L458.875,150.8402 A4.5,4.5 0 0 1 461.875,153.8402 L468.875,194.9763 L606,194.9763 A3,3 0 0 1 609,197.9763 L609,539.8402 A3,3 0 0 1 606,542.8402 L263,542.8402 A3,3 0 0 1 260,539.8402 L260,153.8402 A3,3 0 0 1 263,150.8402 " fill="#1B263B" style="stroke:#415A77;stroke-width:1.5;"/><line style="stroke:#415A77;stroke-width:1.5;" x1="260" x2="468.875" y1="194.9763" y2="194.9763"/><text fill="#00FFFF" font-family="sans-serif" font-size="28" font-weight="bold" lengthAdjust="spacing" textLength="195.875" x="264" y="182.7723">&#128200; Situaciones</text></g><!--class Usuario--><g id="elem_Usuario"><rect codeLine="11" fill="#0D1B2A" height="191.011" id="Usuario" rx="2.5" ry="2.5" style="stroke:#778DA9;stroke-width:0.5;" width="197" x="22.5" y="166.8402"/><ellipse cx="89.75" cy="182.8402" fill="#0D1B2A" rx="11" ry="11" style="stroke:#778DA9;stroke-width:1.0;"/><path d="M93.8594,188.8402 L86.1406,188.8402 L86.1406,176.4496 L93.8594,176.4496 L93.8594,178.6058 L88.5938,178.6058 L88.5938,181.2777 L93.3594,181.2777 L93.3594,183.4339 L88.5938,183.4339 L88.5938,186.6839 L93.8594,186.6839 L93.8594,188.8402 Z " fill="#E0E1DD"/><text fill="#E0E1DD" font-family="sans-serif" font-size="15" lengthAdjust="spacing" textLength="54" x="110.25" y="188.6602">Usuario</text><line style="stroke:#778DA9;stroke-width:0.5;" x1="23.5" x2="218.5" y1="198.8402" y2="198.8402"/><ellipse cx="33.5" cy="214.5553" fill="none" rx="3" ry="3" style="stroke:#778DA9;stroke-width:1.0;"/><text fill="#E0E1DD" font-family="sans-serif" font-size="15" lengthAdjust="spacing" textLength="91" x="42.5" y="218.8753">_id : ObjectId</text><ellipse cx="33.5" cy="234.9854" fill="none" rx="3" ry="3" style="stroke:#778DA9;stroke-width:1.0;"/><text fill="#E0E1DD" font-family="sans-serif" font-size="15" lengthAdjust="spacing" textLength="166" x="42.5" y="239.3054">nombre_usuario : string</text><ellipse cx="33.5" cy="255.4156" fill="none" rx="3" ry="3" style="stroke:#778DA9;stroke-width:1.0;"/><text fill="#E0E1DD" font-family="sans-serif" font-size="15" lengthAdjust="spacing" textLength="107" x="42.5" y="259.7356">nombre : string</text><ellipse cx="33.5" cy="275.8457" fill="none" rx="3" ry="3" style="stroke:#778DA9;stroke-width:1.0;"/><text fill="#E0E1DD" font-family="sans-serif" font-size="15" lengthAdjust="spacing" textLength="90" x="42.5" y="280.1657">email : string</text><ellipse cx="33.5" cy="296.2758" fill="none" rx="3" ry="3" style="stroke:#778DA9;stroke-width:1.0;"/><text fill="#E0E1DD" font-family="sans-serif" font-size="15" lengthAdjust="spacing" textLength="159" x="42.5" y="300.5959">password_hash : string</text><ellipse cx="33.5" cy="316.706" fill="none" rx="3" ry="3" style="stroke:#778DA9;stroke-width:1.0;"/><text fill="#E0E1DD" font-family="sans-serif" font-size="15" lengthAdjust="spacing" textLength="71" x="42.5" y="321.026">rol : string</text><ellipse cx="33.5" cy="337.1361" fill="none" rx="3" ry="3" style="stroke:#778DA9;stroke-width:1.0;"/><text fill="#E0E1DD" font-family="sans-serif" font-size="15" lengthAdjust="spacing" textLength="171" x="42.5" y="341.4562">fecha_registro : datetime</text><line style="stroke:#778DA9;stroke-width:0.5;" x1="23.5" x2="218.5" y1="349.8512" y2="349.8512"/></g><!--class Situaci?n--><g id="elem_Situaci&#243;n"><rect codeLine="30" fill="#0D1B2A" height="109.2904" id="Situaci&#243;n" rx="2.5" ry="2.5" style="stroke:#778DA9;stroke-width:0.5;" width="221" x="323.5" y="207.8402"/><ellipse cx="398.25" cy="223.8402" fill="#0D1B2A" rx="11" ry="11" style="stroke:#778DA9;stroke-width:1.0;"/><path d="M402.3594,229.8402 L394.6406,229.8402 L394.6406,217.4496 L402.3594,217.4496 L402.3594,219.6058 L397.0938,219.6058 L397.0938,222.2777 L401.8594,222.2777 L401.8594,224.4339 L397.0938,224.4339 L397.0938,227.6839 L402.3594,227.6839 L402.3594,229.8402 Z " fill="#E0E1DD"/><text fill="#E0E1DD" font-family="sans-serif" font-size="15" lengthAdjust="spacing" textLength="63" x="418.75" y="229.6602">Situaci&#243;n</text><line style="stroke:#778DA9;stroke-width:0.5;" x1="324.5" x2="543.5" y1="239.8402" y2="239.8402"/><ellipse cx="334.5" cy="255.5553" fill="none" rx="3" ry="3" style="stroke:#778DA9;stroke-width:1.0;"/><text fill="#E0E1DD" font-family="sans-serif" font-size="15" lengthAdjust="spacing" textLength="91" x="343.5" y="259.8753">_id : ObjectId</text><line style="stroke:#778DA9;stroke-width:1.0;" x1="324.5" x2="543.5" y1="268.2703" y2="268.2703"/><ellipse cx="334.5" cy="283.9854" fill="none" rx="3" ry="3" style="stroke:#778DA9;stroke-width:1.0;"/><text fill="#E0E1DD" font-family="sans-serif" font-size="15" lengthAdjust="spacing" textLength="195" x="343.5" y="288.3054">Situacion socieconomica: int</text><ellipse cx="334.5" cy="304.4156" fill="none" rx="3" ry="3" style="stroke:#778DA9;stroke-width:1.0;"/><text fill="#E0E1DD" font-family="sans-serif" font-size="15" lengthAdjust="spacing" textLength="121" x="343.5" y="308.7356">Nivel autismo: int</text></g><!--class Charlas--><g id="elem_Charlas"><rect codeLine="37" fill="#0D1B2A" height="109.2904" id="Charlas" rx="2.5" ry="2.5" style="stroke:#778DA9;stroke-width:0.5;" width="136" x="276" y="417.8402"/><ellipse cx="314.85" cy="433.8402" fill="#0D1B2A" rx="11" ry="11" style="stroke:#778DA9;stroke-width:1.0;"/><path d="M318.9594,439.8402 L311.2406,439.8402 L311.2406,427.4496 L318.9594,427.4496 L318.9594,429.6058 L313.6938,429.6058 L313.6938,432.2777 L318.4594,432.2777 L318.4594,434.4339 L313.6938,434.4339 L313.6938,437.6839 L318.9594,437.6839 L318.9594,439.8402 Z " fill="#E0E1DD"/><text fill="#E0E1DD" font-family="sans-serif" font-size="15" lengthAdjust="spacing" textLength="51" x="334.15" y="439.6602">Charlas</text><line style="stroke:#778DA9;stroke-width:0.5;" x1="277" x2="411" y1="449.8402" y2="449.8402"/><ellipse cx="287" cy="465.5553" fill="none" rx="3" ry="3" style="stroke:#778DA9;stroke-width:1.0;"/><text fill="#E0E1DD" font-family="sans-serif" font-size="15" lengthAdjust="spacing" textLength="91" x="296" y="469.8753">_id : ObjectId</text><line style="stroke:#778DA9;stroke-width:1.0;" x1="277" x2="411" y1="478.2703" y2="478.2703"/><ellipse cx="287" cy="493.9854" fill="none" rx="3" ry="3" style="stroke:#778DA9;stroke-width:1.0;"/><text fill="#E0E1DD" font-family="sans-serif" font-size="15" lengthAdjust="spacing" textLength="110" x="296" y="498.3054">fecha : datetime</text><ellipse cx="287" cy="514.4156" fill="none" rx="3" ry="3" style="stroke:#778DA9;stroke-width:1.0;"/><text fill="#E0E1DD" font-family="sans-serif" font-size="15" lengthAdjust="spacing" textLength="98" x="296" y="518.7356">resultados: int</text></g><!--class Estadisticas--><g id="elem_Estadisticas"><rect codeLine="44" fill="#0D1B2A" height="88.8603" id="Estadisticas" rx="2.5" ry="2.5" style="stroke:#778DA9;stroke-width:0.5;" width="146" x="447" y="427.8402"/><ellipse cx="477.75" cy="443.8402" fill="#0D1B2A" rx="11" ry="11" style="stroke:#778DA9;stroke-width:1.0;"/><path d="M481.8594,449.8402 L474.1406,449.8402 L474.1406,437.4496 L481.8594,437.4496 L481.8594,439.6058 L476.5938,439.6058 L476.5938,442.2777 L481.3594,442.2777 L481.3594,444.4339 L476.5938,444.4339 L476.5938,447.6839 L481.8594,447.6839 L481.8594,449.8402 Z " fill="#E0E1DD"/><text fill="#E0E1DD" font-family="sans-serif" font-size="15" lengthAdjust="spacing" textLength="79" x="495.25" y="449.6602">Estadisticas</text><line style="stroke:#778DA9;stroke-width:0.5;" x1="448" x2="592" y1="459.8402" y2="459.8402"/><ellipse cx="458" cy="475.5553" fill="none" rx="3" ry="3" style="stroke:#778DA9;stroke-width:1.0;"/><text fill="#E0E1DD" font-family="sans-serif" font-size="15" lengthAdjust="spacing" textLength="91" x="467" y="479.8753">_id : ObjectId</text><line style="stroke:#778DA9;stroke-width:1.0;" x1="448" x2="592" y1="488.2703" y2="488.2703"/><ellipse cx="458" cy="503.9854" fill="none" rx="3" ry="3" style="stroke:#778DA9;stroke-width:1.0;"/><text fill="#E0E1DD" font-family="sans-serif" font-size="15" lengthAdjust="spacing" textLength="120" x="467" y="508.3054">resultados: string</text></g><!--link Situaci?n to Charlas--><g id="link_Situaci&#243;n_Charlas"><path codeLine="51" d="M410.82,316.9102 C397.44,347.8402 380.65,386.6302 367.25,417.6002 " fill="none" id="Situaci&#243;n-Charlas" style="stroke:#00FFFF;stroke-width:2.0;"/><text fill="#B0B0B0" font-family="sans-serif" font-size="15" lengthAdjust="spacing" textLength="9" x="398.2735" y="341.2273">1</text><text fill="#B0B0B0" font-family="sans-serif" font-size="15" lengthAdjust="spacing" textLength="25" x="343.6273" y="405.3494">0..*</text></g><!--link Situaci?n to Estadisticas--><g id="link_Situaci&#243;n_Estadisticas"><path codeLine="52" d="M456.15,316.9102 C470.38,351.3302 488.64,395.4802 501.98,427.7602 " fill="none" id="Situaci&#243;n-Estadisticas" style="stroke:#00FFFF;stroke-width:2.0;"/><text fill="#B0B0B0" font-family="sans-serif" font-size="15" lengthAdjust="spacing" textLength="9" x="449.4114" y="341.2273">1</text><text fill="#B0B0B0" font-family="sans-serif" font-size="15" lengthAdjust="spacing" textLength="9" x="489.5316" y="415.4814">1</text></g><!--SRC=[bPA_Rjim4CPtFSLLIu0KjjlLgzkXIrAqwDB5E9DdwHgA9_1FYxJmqArx7o38C-GH_49vX1uLfrO21KWuI2I_u_6xt_4LU-Eo9OZfqj72C3cPUTfa9r7cVUxSeeeNx7iCsC46pKKJ97kx4YS1Ka0VLIAVgYfnSWHdb8DypBf3iQgg4tX7M_RSIOIVuZ624M-eJncT1lIQ41k2-lRgxszOYTzoamCQtj_u6dvLe6FuQ3vEb_0bPWmi1wMCrsksi8JppJSowOCzxdlfDe7M-N1YgHK6zitZW0c1EcGtiTzZZ3yas7MBiPtGWqoTsf9fSHseOLMA3uk94dSqXEoKqJ0vWK_aj73n54krwgpKRD7gcfLcK7XLjIj8lof8q9vf9iLgsU-lEpOwNK2hj-nlGbazWFi7FhColyjVo8wf7YHb_Womizanv7zEYA9FHrihQWINnV0nweo_amFCYMCdHsttmCEgnU3qURpCm03tCTExPb3CBg6L-DIDxwFAYaiDl_JQSV9HltSJhRpl3ewwM896pEktjMQ7-iryVbhVWtWgI7zZuyEB-0S0]--></g></svg>